<svg width="32" height="32" viewBox="0 0 32 32" fill="none" xmlns="http://www.w3.org/2000/svg">
<g clip-path="url(#clip0_9449_65679)">
<path d="M20.5 10C21.3284 10 22 9.32843 22 8.5C22 7.67157 21.3284 7 20.5 7C19.6716 7 19 7.67157 19 8.5C19 9.32843 19.6716 10 20.5 10Z" fill="black"/>
<path d="M12.9999 12.4401V9.61134C12.9999 6.01509 15.8749 3.01759 19.4674 3.00009C20.9118 2.9926 22.3175 3.4664 23.4626 4.34669C24.6077 5.22699 25.427 6.46361 25.7911 7.86134L28.9999 10.0001L25.9999 12.0001V15.0001C25.9999 18.1827 24.7356 21.2349 22.4852 23.4854C20.2347 25.7358 17.1825 27.0001 13.9999 27.0001H2.99989C2.81144 27.0002 2.62679 26.9471 2.46722 26.8468C2.30766 26.7465 2.17967 26.6032 2.09802 26.4334C2.01636 26.2635 1.98436 26.0741 2.0057 25.8868C2.02704 25.6996 2.10086 25.5222 2.21864 25.3751L12.9999 12.4401Z" stroke="black" stroke-width="2" stroke-linecap="round" stroke-linejoin="round"/>
<path d="M16 16L6.83374 27" stroke="black" stroke-width="2" stroke-linecap="round" stroke-linejoin="round"/>
</g>
<defs>
<clipPath id="clip0_9449_65679">
<rect width="32" height="32" fill="white"/>
</clipPath>
</defs>
</svg>
