<svg width="60" height="60" viewBox="0 0 60 60" fill="none" xmlns="http://www.w3.org/2000/svg">
<g clip-path="url(#clip0_9443_69283)">
<path opacity="0.2" d="M24.3752 23.3252V18.0213C24.3752 11.2783 29.7658 5.65798 36.5018 5.62516C39.2099 5.61112 41.8456 6.49951 43.9927 8.15005C46.1399 9.8006 47.6761 12.1193 48.3588 14.74L54.3752 18.7502L48.7502 22.5002V28.1252C48.7502 34.0925 46.3797 39.8155 42.1601 44.0351C37.9405 48.2546 32.2176 50.6252 26.2502 50.6252H5.6252C5.27185 50.6254 4.92563 50.5258 4.62644 50.3378C4.32726 50.1498 4.08728 49.8811 3.93418 49.5626C3.78107 49.2441 3.72107 48.8889 3.76109 48.5378C3.8011 48.1867 3.93951 47.8541 4.16035 47.5783L24.3752 23.3252Z" fill="#FFFAF7"/>
<path d="M38.4375 18.75C39.9908 18.75 41.25 17.4908 41.25 15.9375C41.25 14.3842 39.9908 13.125 38.4375 13.125C36.8842 13.125 35.625 14.3842 35.625 15.9375C35.625 17.4908 36.8842 18.75 38.4375 18.75Z" fill="#A78BFA"/>
<path d="M24.3752 23.3252V18.0213C24.3752 11.2783 29.7658 5.65798 36.5018 5.62516C39.2099 5.61112 41.8456 6.49951 43.9927 8.15005C46.1399 9.8006 47.676 12.1193 48.3588 14.74L54.3752 18.7502L48.7502 22.5002V28.1252C48.7502 34.0925 46.3797 39.8155 42.1601 44.0351C37.9405 48.2546 32.2176 50.6252 26.2502 50.6252H5.6252C5.27185 50.6254 4.92563 50.5258 4.62644 50.3378C4.32726 50.1498 4.08728 49.881 3.93418 49.5626C3.78107 49.2441 3.72107 48.8889 3.76109 48.5378C3.8011 48.1867 3.93951 47.8541 4.16035 47.5783L24.3752 23.3252Z" stroke="#58CC02" stroke-width="2" stroke-linecap="round" stroke-linejoin="round"/>
<path d="M30.0002 30L12.8135 50.625" stroke="#58CC02" stroke-width="2" stroke-linecap="round" stroke-linejoin="round"/>
</g>
<defs>
<clipPath id="clip0_9443_69283">
<rect width="60" height="60" fill="white"/>
</clipPath>
</defs>
</svg>
