<svg width="32" height="32" viewBox="0 0 32 32" fill="none" xmlns="http://www.w3.org/2000/svg">
<g clip-path="url(#clip0_9449_65711)">
<path d="M16 7V22.5" stroke="black" stroke-width="2" stroke-linecap="round" stroke-linejoin="round"/>
<path d="M23.4699 18.9925C24.4762 19.0525 27.1574 18.8312 28.1399 14.9637C29.1512 10.98 30.0274 6 26.1162 6C22.2049 6 15.9999 11.975 15.9999 15.9587C15.9999 11.975 9.7949 6 5.88365 6C1.9724 6 2.84865 10.98 3.8599 14.9637C4.8424 18.8312 7.52365 19.0525 8.5299 18.9925" stroke="black" stroke-width="2" stroke-linecap="round" stroke-linejoin="round"/>
<path d="M10.9999 18C10.1335 18.0939 9.31281 18.4366 8.63691 18.9867C7.96101 19.5368 7.45881 20.2708 7.19094 21.1C6.92307 21.9293 6.90098 22.8184 7.12735 23.66C7.35372 24.5015 7.81887 25.2595 8.46662 25.8425C9.11438 26.4255 9.91705 26.8085 10.7777 26.9453C11.6384 27.0821 12.5202 26.9668 13.3168 26.6133C14.1134 26.2599 14.7906 25.6834 15.2667 24.9535C15.7428 24.2236 15.9975 23.3715 15.9999 22.5C16.0053 23.3675 16.2613 24.2149 16.7371 24.9403C17.2129 25.6657 17.8882 26.2381 18.6818 26.5885C19.4753 26.939 20.3533 27.0526 21.2099 26.9157C22.0665 26.7789 22.8653 26.3973 23.5102 25.8169C24.155 25.2366 24.6183 24.4823 24.8443 23.6448C25.0704 22.8072 25.0495 21.9222 24.7843 21.0962C24.5191 20.2703 24.0207 19.5386 23.3493 18.9893C22.6779 18.44 21.862 18.0964 20.9999 18" stroke="black" stroke-width="2" stroke-linecap="round" stroke-linejoin="round"/>
</g>
<defs>
<clipPath id="clip0_9449_65711">
<rect width="32" height="32" fill="white"/>
</clipPath>
</defs>
</svg>
