<svg width="20" height="20" viewBox="0 0 20 20" fill="none" xmlns="http://www.w3.org/2000/svg">
<g clip-path="url(#clip0_9451_66802)">
<path d="M13.75 5H6.25V8.75H13.75V5Z" stroke="black" stroke-width="1.5" stroke-linecap="round" stroke-linejoin="round"/>
<path d="M16.25 16.875V3.125C16.25 2.77982 15.9702 2.5 15.625 2.5L4.375 2.5C4.02982 2.5 3.75 2.77982 3.75 3.125V16.875C3.75 17.2202 4.02982 17.5 4.375 17.5H15.625C15.9702 17.5 16.25 17.2202 16.25 16.875Z" stroke="black" stroke-width="1.5" stroke-linecap="round" stroke-linejoin="round"/>
<path d="M6.875 12.3438C7.30647 12.3438 7.65625 11.994 7.65625 11.5625C7.65625 11.131 7.30647 10.7812 6.875 10.7812C6.44353 10.7812 6.09375 11.131 6.09375 11.5625C6.09375 11.994 6.44353 12.3438 6.875 12.3438Z" fill="black"/>
<path d="M10 12.3438C10.4315 12.3438 10.7812 11.994 10.7812 11.5625C10.7812 11.131 10.4315 10.7812 10 10.7812C9.56853 10.7812 9.21875 11.131 9.21875 11.5625C9.21875 11.994 9.56853 12.3438 10 12.3438Z" fill="black"/>
<path d="M13.125 12.3438C13.5565 12.3438 13.9062 11.994 13.9062 11.5625C13.9062 11.131 13.5565 10.7812 13.125 10.7812C12.6935 10.7812 12.3438 11.131 12.3438 11.5625C12.3438 11.994 12.6935 12.3438 13.125 12.3438Z" fill="black"/>
<path d="M6.875 15.4688C7.30647 15.4688 7.65625 15.119 7.65625 14.6875C7.65625 14.256 7.30647 13.9062 6.875 13.9062C6.44353 13.9062 6.09375 14.256 6.09375 14.6875C6.09375 15.119 6.44353 15.4688 6.875 15.4688Z" fill="black"/>
<path d="M10 15.4688C10.4315 15.4688 10.7812 15.119 10.7812 14.6875C10.7812 14.256 10.4315 13.9062 10 13.9062C9.56853 13.9062 9.21875 14.256 9.21875 14.6875C9.21875 15.119 9.56853 15.4688 10 15.4688Z" fill="black"/>
<path d="M13.125 15.4688C13.5565 15.4688 13.9062 15.119 13.9062 14.6875C13.9062 14.256 13.5565 13.9062 13.125 13.9062C12.6935 13.9062 12.3438 14.256 12.3438 14.6875C12.3438 15.119 12.6935 15.4688 13.125 15.4688Z" fill="black"/>
</g>
<defs>
<clipPath id="clip0_9451_66802">
<rect width="20" height="20" fill="white"/>
</clipPath>
</defs>
</svg>
