<svg width="32" height="32" viewBox="0 0 32 32" fill="none" xmlns="http://www.w3.org/2000/svg">
<g clip-path="url(#clip0_9449_65869)">
<path d="M19.5 11C20.3284 11 21 10.3284 21 9.5C21 8.67157 20.3284 8 19.5 8C18.6716 8 18 8.67157 18 9.5C18 10.3284 18.6716 11 19.5 11Z" fill="black"/>
<path d="M1 21.9847L8.00875 23.9922L10.0087 31.0009L13.0087 23.9922C32.3138 23.5334 27.5 4.83594 27.375 4.62594C27.1587 4.50094 8.46875 -0.306565 8 18.9884L1 21.9847Z" stroke="black" stroke-width="2" stroke-linecap="round" stroke-linejoin="round"/>
<path d="M23.2275 20.9516C22.4066 21.0612 21.5716 20.984 20.7847 20.7258C19.9979 20.4675 19.2795 20.0349 18.6832 19.4602C18.0869 18.8856 17.6281 18.1837 17.3409 17.4069C17.0538 16.6301 16.9458 15.7985 17.025 14.9741C16.201 15.0532 15.3698 14.9453 14.5933 14.6583C13.8168 14.3714 13.1151 13.9129 12.5405 13.3171C11.9659 12.7212 11.5332 12.0033 11.2747 11.2169C11.0162 10.4306 10.9385 9.59597 11.0475 8.77539" stroke="black" stroke-width="2" stroke-linecap="round" stroke-linejoin="round"/>
</g>
<defs>
<clipPath id="clip0_9449_65869">
<rect width="32" height="32" fill="white"/>
</clipPath>
</defs>
</svg>
