<svg width="20" height="20" viewBox="0 0 20 20" fill="none" xmlns="http://www.w3.org/2000/svg">
<g clip-path="url(#clip0_9451_66324)">
<path d="M10 13.125C11.7259 13.125 13.125 11.7259 13.125 10C13.125 8.27411 11.7259 6.875 10 6.875C8.27411 6.875 6.875 8.27411 6.875 10C6.875 11.7259 8.27411 13.125 10 13.125Z" stroke="#70B6E5" stroke-width="2" stroke-linecap="round" stroke-linejoin="round"/>
<path d="M3.23667 13.9125C2.89134 13.3177 2.62677 12.6795 2.44995 12.0148L3.76089 10.3742C3.74605 10.1234 3.74605 9.87192 3.76089 9.62109L2.45073 7.98047C2.62725 7.31569 2.89127 6.67729 3.23589 6.08203L5.32261 5.84766C5.48924 5.65992 5.6669 5.48226 5.85464 5.31563L6.08901 3.22969C6.68342 2.88671 7.32077 2.62426 7.98433 2.44922L9.62495 3.76016C9.87577 3.74531 10.1273 3.74531 10.3781 3.76016L12.0187 2.45C12.6835 2.62652 13.3219 2.89054 13.9171 3.23516L14.1515 5.32187C14.3393 5.48851 14.5169 5.66617 14.6835 5.85391L16.7695 6.08828C17.1148 6.6831 17.3794 7.32126 17.5562 7.98594L16.2453 9.62656C16.2601 9.87738 16.2601 10.1289 16.2453 10.3797L17.5554 12.0203C17.3801 12.6849 17.1174 13.3233 16.7742 13.9187L14.6875 14.1531C14.5208 14.3409 14.3432 14.5185 14.1554 14.6852L13.921 16.7711C13.3262 17.1164 12.6881 17.381 12.0234 17.5578L10.3828 16.2469C10.1319 16.2617 9.88046 16.2617 9.62964 16.2469L7.98901 17.557C7.32443 17.3817 6.68604 17.119 6.09058 16.7758L5.8562 14.6891C5.66846 14.5224 5.4908 14.3448 5.32417 14.157L3.23667 13.9125Z" stroke="#70B6E5" stroke-width="2" stroke-linecap="round" stroke-linejoin="round"/>
</g>
<defs>
<clipPath id="clip0_9451_66324">
<rect width="20" height="20" fill="white"/>
</clipPath>
</defs>
</svg>
