<svg width="30" height="30" viewBox="0 0 30 30" fill="none" xmlns="http://www.w3.org/2000/svg">
<path opacity="0.2" d="M25.3125 13.25V19.4867C25.313 19.7158 25.2297 19.9372 25.0781 20.109C23.7539 21.5844 20.5195 24.3746 15 24.3746C9.48047 24.3746 6.24844 21.5844 4.92188 20.109C4.77035 19.9372 4.68697 19.7158 4.6875 19.4867V13.25L15 18.7496L25.3125 13.25Z" fill="#FFA239"/>
<path d="M29.5033 10.4225L15.4408 2.9225C15.3052 2.85028 15.1539 2.8125 15.0002 2.8125C14.8465 2.8125 14.6952 2.85028 14.5596 2.9225L0.49707 10.4225C0.347075 10.5024 0.221634 10.6216 0.134164 10.7674C0.0466945 10.9131 0.000488281 11.0799 0.000488281 11.2498C0.000488281 11.4198 0.0466945 11.5866 0.134164 11.7323C0.221634 11.878 0.347075 11.9973 0.49707 12.0772L3.7502 13.8127V19.487C3.74922 19.9475 3.9187 20.392 4.22598 20.735C5.76113 22.4448 9.20058 25.3123 15.0002 25.3123C16.9232 25.3283 18.8318 24.9799 20.6252 24.2858V28.1248C20.6252 28.3735 20.724 28.6119 20.8998 28.7878C21.0756 28.9636 21.3141 29.0623 21.5627 29.0623C21.8113 29.0623 22.0498 28.9636 22.2256 28.7878C22.4014 28.6119 22.5002 28.3735 22.5002 28.1248V23.3799C23.7227 22.6742 24.8274 21.7818 25.7744 20.735C26.0817 20.392 26.2512 19.9475 26.2502 19.487V13.8127L29.5033 12.0772C29.6533 11.9973 29.7788 11.878 29.8662 11.7323C29.9537 11.5866 29.9999 11.4198 29.9999 11.2498C29.9999 11.0799 29.9537 10.9131 29.8662 10.7674C29.7788 10.6216 29.6533 10.5024 29.5033 10.4225ZM15.0002 23.4373C9.92949 23.4373 6.94707 20.96 5.6252 19.487V14.8123L14.5596 19.5772C14.6952 19.6494 14.8465 19.6872 15.0002 19.6872C15.1539 19.6872 15.3052 19.6494 15.4408 19.5772L20.6252 16.8127V22.2432C19.1486 22.9323 17.2877 23.4373 15.0002 23.4373ZM24.3752 19.4823C23.8132 20.1059 23.1844 20.6659 22.5002 21.1522V15.812L24.3752 14.8123V19.4823ZM22.0314 13.9381L22.0057 13.9229L15.4432 10.4225C15.2242 10.3107 14.9701 10.2893 14.7356 10.3631C14.501 10.4368 14.3048 10.5997 14.1893 10.8167C14.0737 11.0337 14.048 11.2874 14.1177 11.5232C14.1874 11.759 14.3469 11.9579 14.5619 12.0772L20.0393 14.9998L15.0002 17.687L2.92988 11.2498L15.0002 4.81273L27.0705 11.2498L22.0314 13.9381Z" fill="#FFA239"/>
</svg>
