<svg width="60" height="60" viewBox="0 0 60 60" fill="none" xmlns="http://www.w3.org/2000/svg">
<g clip-path="url(#clip0_9442_69168)">
<path opacity="0.2" d="M30 37.5H22.5V30L39.375 13.125L46.875 20.625L30 37.5Z" fill="#58CC02"/>
<path d="M30 37.5H22.5V30L45 7.5L52.5 15L30 37.5Z" stroke="#58CC02" stroke-width="2" stroke-linecap="round" stroke-linejoin="round"/>
<path d="M39.375 13.125L46.875 20.625" stroke="#58CC02" stroke-width="2" stroke-linecap="round" stroke-linejoin="round"/>
<path d="M50.625 30V48.75C50.625 49.2473 50.4275 49.7242 50.0758 50.0758C49.7242 50.4275 49.2473 50.625 48.75 50.625H11.25C10.7527 50.625 10.2758 50.4275 9.92418 50.0758C9.57254 49.7242 9.375 49.2473 9.375 48.75V11.25C9.375 10.7527 9.57254 10.2758 9.92418 9.92418C10.2758 9.57254 10.7527 9.375 11.25 9.375H30" stroke="#58CC02" stroke-width="2" stroke-linecap="round" stroke-linejoin="round"/>
</g>
<defs>
<clipPath id="clip0_9442_69168">
<rect width="60" height="60" fill="white"/>
</clipPath>
</defs>
</svg>
