<svg width="60" height="60" viewBox="0 0 60 60" fill="none" xmlns="http://www.w3.org/2000/svg">
<g clip-path="url(#clip0_9447_65367)">
<path d="M30 44.9992C30 43.5073 30.5926 42.0766 31.6475 41.0217C32.7024 39.9668 34.1332 39.3742 35.625 39.3742H46.4555C47.7295 39.3744 48.9659 38.9421 49.9623 38.148C50.9586 37.3539 51.6558 36.2451 51.9398 35.0031C52.3269 33.2978 52.5149 31.5533 52.5 29.8047C52.3945 17.425 42.15 7.37497 29.7656 7.49919C23.839 7.56093 18.176 9.95868 14.007 14.1716C9.83801 18.3845 7.49968 24.0722 7.5 29.9992C7.5 39.7984 13.7648 47.2117 22.5 50.2984C23.3481 50.5983 24.2557 50.6903 25.1468 50.5669C26.0378 50.4435 26.8863 50.1082 27.6209 49.5891C28.3556 49.07 28.9551 48.3823 29.369 47.5836C29.783 46.785 29.9993 45.8987 30 44.9992Z" stroke="#FFA239" stroke-width="1.5" stroke-linecap="round" stroke-linejoin="round"/>
<path d="M30 20.1562C31.2944 20.1562 32.3438 19.1069 32.3438 17.8125C32.3438 16.5181 31.2944 15.4688 30 15.4688C28.7056 15.4688 27.6562 16.5181 27.6562 17.8125C27.6562 19.1069 28.7056 20.1562 30 20.1562Z" fill="#FF6F61"/>
<path d="M19.6875 25.7812C20.9819 25.7812 22.0312 24.7319 22.0312 23.4375C22.0312 22.1431 20.9819 21.0938 19.6875 21.0938C18.3931 21.0938 17.3438 22.1431 17.3438 23.4375C17.3438 24.7319 18.3931 25.7812 19.6875 25.7812Z" fill="#00A8E8"/>
<path d="M19.6875 38.9062C20.9819 38.9062 22.0312 37.8569 22.0312 36.5625C22.0312 35.2681 20.9819 34.2188 19.6875 34.2188C18.3931 34.2188 17.3438 35.2681 17.3438 36.5625C17.3438 37.8569 18.3931 38.9062 19.6875 38.9062Z" fill="#58CC02"/>
<path d="M40.3125 25.7812C41.6069 25.7812 42.6562 24.7319 42.6562 23.4375C42.6562 22.1431 41.6069 21.0938 40.3125 21.0938C39.0181 21.0938 37.9688 22.1431 37.9688 23.4375C37.9688 24.7319 39.0181 25.7812 40.3125 25.7812Z" fill="#FFD700"/>
</g>
<defs>
<clipPath id="clip0_9447_65367">
<rect width="60" height="60" fill="white"/>
</clipPath>
</defs>
</svg>
