<svg width="20" height="20" viewBox="0 0 20 20" fill="none" xmlns="http://www.w3.org/2000/svg">
<g clip-path="url(#clip0_9451_66776)">
<path d="M10 15.0004C10 14.5031 10.1975 14.0262 10.5492 13.6746C10.9008 13.3229 11.3777 13.1254 11.875 13.1254H15.4852C15.9098 13.1254 16.322 12.9813 16.6541 12.7166C16.9862 12.452 17.2186 12.0824 17.3133 11.6683C17.4423 11.0999 17.505 10.5184 17.5 9.93554C17.4648 5.80897 14.05 2.45897 9.92188 2.50038C7.94632 2.52096 6.05868 3.32021 4.66901 4.72451C3.27934 6.12881 2.49989 8.02472 2.5 10.0004C2.5 13.2668 4.58828 15.7379 7.5 16.7668C7.7827 16.8667 8.08525 16.8974 8.38226 16.8563C8.67927 16.8151 8.96209 16.7034 9.20698 16.5303C9.45186 16.3573 9.65168 16.1281 9.78967 15.8619C9.92766 15.5957 9.99978 15.3002 10 15.0004Z" stroke="black" stroke-width="1.5" stroke-linecap="round" stroke-linejoin="round"/>
<path d="M10 6.71875C10.4315 6.71875 10.7812 6.36897 10.7812 5.9375C10.7812 5.50603 10.4315 5.15625 10 5.15625C9.56853 5.15625 9.21875 5.50603 9.21875 5.9375C9.21875 6.36897 9.56853 6.71875 10 6.71875Z" fill="black"/>
<path d="M6.5625 8.59375C6.99397 8.59375 7.34375 8.24397 7.34375 7.8125C7.34375 7.38103 6.99397 7.03125 6.5625 7.03125C6.13103 7.03125 5.78125 7.38103 5.78125 7.8125C5.78125 8.24397 6.13103 8.59375 6.5625 8.59375Z" fill="black"/>
<path d="M6.5625 12.9688C6.99397 12.9688 7.34375 12.619 7.34375 12.1875C7.34375 11.756 6.99397 11.4062 6.5625 11.4062C6.13103 11.4062 5.78125 11.756 5.78125 12.1875C5.78125 12.619 6.13103 12.9688 6.5625 12.9688Z" fill="black"/>
<path d="M13.4375 8.59375C13.869 8.59375 14.2188 8.24397 14.2188 7.8125C14.2188 7.38103 13.869 7.03125 13.4375 7.03125C13.006 7.03125 12.6562 7.38103 12.6562 7.8125C12.6562 8.24397 13.006 8.59375 13.4375 8.59375Z" fill="black"/>
</g>
<defs>
<clipPath id="clip0_9451_66776">
<rect width="20" height="20" fill="white"/>
</clipPath>
</defs>
</svg>
