<svg width="20" height="20" viewBox="0 0 20 20" fill="none" xmlns="http://www.w3.org/2000/svg">
<g clip-path="url(#clip0_9451_66497)">
<path d="M10 14.8438C10.4315 14.8438 10.7812 14.494 10.7812 14.0625C10.7812 13.631 10.4315 13.2812 10 13.2812C9.56853 13.2812 9.21875 13.631 9.21875 14.0625C9.21875 14.494 9.56853 14.8438 10 14.8438Z" fill="#CC584D"/>
<path d="M10 11.25V10.625C11.3805 10.625 12.5 9.64531 12.5 8.4375C12.5 7.22969 11.3805 6.25 10 6.25C8.61953 6.25 7.5 7.22969 7.5 8.4375V8.75" stroke="#CC584D" stroke-width="1.5" stroke-linecap="round" stroke-linejoin="round"/>
<path d="M10 17.5C14.1421 17.5 17.5 14.1421 17.5 10C17.5 5.85786 14.1421 2.5 10 2.5C5.85786 2.5 2.5 5.85786 2.5 10C2.5 14.1421 5.85786 17.5 10 17.5Z" stroke="#CC584D" stroke-width="1.5" stroke-linecap="round" stroke-linejoin="round"/>
</g>
<defs>
<clipPath id="clip0_9451_66497">
<rect width="20" height="20" fill="white"/>
</clipPath>
</defs>
</svg>
