<svg width="32" height="32" viewBox="0 0 32 32" fill="none" xmlns="http://www.w3.org/2000/svg">
<g clip-path="url(#clip0_9449_65703)">
<path d="M12.5 22C13.3284 22 14 21.3284 14 20.5C14 19.6716 13.3284 19 12.5 19C11.6716 19 11 19.6716 11 20.5C11 21.3284 11.6716 22 12.5 22Z" fill="black"/>
<path d="M19.5 22C20.3284 22 21 21.3284 21 20.5C21 19.6716 20.3284 19 19.5 19C18.6716 19 18 19.6716 18 20.5C18 21.3284 18.6716 22 19.5 22Z" fill="black"/>
<path d="M18 25L16 26.6637L14 25" stroke="black" stroke-width="2" stroke-linecap="round" stroke-linejoin="round"/>
<path d="M18.3201 12.3413C19.0201 9.04875 20.8751 2 23.8676 2C27.3951 2 26.1513 10.1325 23.0038 16.125" stroke="black" stroke-width="2" stroke-linecap="round" stroke-linejoin="round"/>
<path d="M13.68 12.3413C12.98 9.04875 11.125 2 8.13249 2C4.60499 2 5.84874 10.1325 8.99999 16.125" stroke="black" stroke-width="2" stroke-linecap="round" stroke-linejoin="round"/>
<path d="M23.9638 19.2276C24.5745 19.7229 25.0719 20.3434 25.4225 21.0472C25.773 21.7511 25.9686 22.5219 25.996 23.3078C26.0234 24.0936 25.8819 24.8762 25.5812 25.6028C25.2804 26.3293 24.8274 26.9829 24.2526 27.5195C23.6779 28.0561 22.9947 28.4633 22.2493 28.7135C21.5038 28.9636 20.7134 29.0511 19.9312 28.9699C19.1491 28.8886 18.3935 28.6407 17.7153 28.2426C17.0372 27.8446 16.4523 27.3058 16 26.6626C15.5478 27.3058 14.9628 27.8446 14.2847 28.2426C13.6065 28.6407 12.8509 28.8886 12.0688 28.9699C11.2867 29.0511 10.4962 28.9636 9.75078 28.7135C9.00532 28.4633 8.32217 28.0561 7.7474 27.5195C7.17263 26.9829 6.7196 26.3293 6.41887 25.6028C6.11814 24.8762 5.97669 24.0936 6.00407 23.3078C6.03144 22.5219 6.22701 21.7511 6.57757 21.0472C6.92814 20.3434 7.42555 19.7229 8.03627 19.2276C8.2255 17.2465 9.14628 15.4072 10.6188 14.0686C12.0914 12.73 14.01 11.9883 16 11.9883C17.9901 11.9883 19.9087 12.73 21.3812 14.0686C22.8538 15.4072 23.7745 17.2465 23.9638 19.2276Z" stroke="black" stroke-width="2" stroke-linecap="round" stroke-linejoin="round"/>
</g>
<defs>
<clipPath id="clip0_9449_65703">
<rect width="32" height="32" fill="white"/>
</clipPath>
</defs>
</svg>
