<svg width="60" height="60" viewBox="0 0 60 60" fill="none" xmlns="http://www.w3.org/2000/svg">
<g clip-path="url(#clip0_9443_69276)">
<path opacity="0.2" d="M35.625 46.875C32.5195 46.875 30 44.2641 30 41.0414C30 37.8188 32.5195 35.2078 35.625 35.2078C36.333 35.208 37.0343 35.3457 37.6898 35.6133C38.0467 33.8763 38.8889 32.2761 40.1187 30.9985C41.3485 29.7209 42.9154 28.8183 44.6375 28.3954C46.3596 27.9726 48.1664 28.0468 49.848 28.6096C51.5297 29.1723 53.0172 30.2004 54.138 31.5746C55.2588 32.9488 55.9669 34.6127 56.1801 36.3731C56.3932 38.1335 56.1027 39.9183 55.3423 41.5203C54.5818 43.1223 53.3826 44.4757 51.8839 45.4235C50.3851 46.3713 48.6483 46.8746 46.875 46.875H35.625Z" fill="#FFFAF7"/>
<path d="M35.625 46.875C32.5195 46.875 30 44.2641 30 41.0414C30 37.8188 32.5195 35.2078 35.625 35.2078C36.333 35.208 37.0343 35.3457 37.6898 35.6133C38.0467 33.8763 38.8889 32.2761 40.1187 30.9985C41.3485 29.7209 42.9154 28.8183 44.6375 28.3954C46.3596 27.9726 48.1664 28.0468 49.848 28.6096C51.5297 29.1723 53.0172 30.2004 54.138 31.5746C55.2588 32.9488 55.9669 34.6127 56.1801 36.3731C56.3932 38.1335 56.1027 39.9183 55.3423 41.5203C54.5818 43.1223 53.3826 44.4757 51.8839 45.4235C50.3851 46.3713 48.6483 46.8746 46.875 46.875H35.625Z" stroke="black" stroke-width="2" stroke-linecap="round" stroke-linejoin="round"/>
<path d="M3.75 41.2501V37.5001C3.7496 33.0765 5.05314 28.751 7.49767 25.0642C9.94219 21.3775 13.4192 18.4931 17.4941 16.7716C21.569 15.0502 26.0609 14.5681 30.4082 15.3856C34.7556 16.2032 38.7655 18.284 41.9367 21.3681" stroke="#FFA239" stroke-width="2" stroke-linecap="round" stroke-linejoin="round"/>
<path d="M11.25 41.2496V37.4996C11.2497 34.727 12.0179 32.0085 13.4693 29.646C14.9207 27.2836 16.9985 25.3696 19.472 24.1168C21.9455 22.8639 24.7178 22.3211 27.4811 22.5487C30.2444 22.7762 32.8906 23.7652 35.1258 25.4059" stroke="#58CC02" stroke-width="2" stroke-linecap="round" stroke-linejoin="round"/>
<path d="M18.75 41.2505V37.5005C18.7499 36.3677 19.0065 35.2495 19.5004 34.23C19.9943 33.2105 20.7128 32.3161 21.6018 31.614C22.4909 30.9119 23.5275 30.4204 24.6337 30.1762C25.7399 29.9321 26.8871 29.9417 27.9891 30.2044" stroke="#A78BFA" stroke-width="2" stroke-linecap="round" stroke-linejoin="round"/>
</g>
<defs>
<clipPath id="clip0_9443_69276">
<rect width="60" height="60" fill="white"/>
</clipPath>
</defs>
</svg>
