<svg width="50" height="50" viewBox="0 0 50 50" fill="none" xmlns="http://www.w3.org/2000/svg">
<g clip-path="url(#clip0_9454_68089)">
<path d="M3.125 6.25H7.8125L14.9902 32.0859C15.1729 32.7439 15.5661 33.324 16.1096 33.7374C16.6531 34.1507 17.3171 34.3747 18 34.375H37.3047C37.9879 34.3751 38.6523 34.1514 39.1963 33.7379C39.7402 33.3245 40.1336 32.7442 40.3164 32.0859L45.3125 14.0625H9.98242" stroke="#58CC02" stroke-width="1.5" stroke-linecap="round" stroke-linejoin="round"/>
<path d="M17.1875 39.5156C18.6631 39.5156 19.8594 40.7119 19.8594 42.1875C19.8594 43.6631 18.6631 44.8594 17.1875 44.8594C15.7119 44.8594 14.5156 43.6631 14.5156 42.1875C14.5156 40.7119 15.7119 39.5156 17.1875 39.5156Z" fill="black" stroke="#58CC02" stroke-width="0.125"/>
<path d="M37.5 39.5156C38.9756 39.5156 40.1719 40.7119 40.1719 42.1875C40.1719 43.6631 38.9756 44.8594 37.5 44.8594C36.0244 44.8594 34.8281 43.6631 34.8281 42.1875C34.8281 40.7119 36.0244 39.5156 37.5 39.5156Z" fill="black" stroke="#58CC02" stroke-width="0.125"/>
</g>
<defs>
<clipPath id="clip0_9454_68089">
<rect width="50" height="50" fill="white"/>
</clipPath>
</defs>
</svg>
