<svg width="38" height="38" viewBox="0 0 38 38" fill="none" xmlns="http://www.w3.org/2000/svg">
<g clip-path="url(#clip0_9451_66009)">
<path opacity="0.2" d="M12.2029 22.9684L5.86189 19.2737C5.68706 19.1717 5.5477 19.0185 5.46258 18.8349C5.37746 18.6513 5.35066 18.446 5.38581 18.2466C5.42096 18.0473 5.51635 17.8635 5.65915 17.7201C5.80194 17.5767 5.98527 17.4804 6.18444 17.4444L13.4067 16.1412L17.1014 9.80021C17.2034 9.62539 17.3566 9.48603 17.5402 9.40091C17.7238 9.31578 17.9291 9.28899 18.1285 9.32414C18.3278 9.35928 18.5115 9.45468 18.655 9.59748C18.7984 9.74027 18.8947 9.9236 18.9307 10.1228L20.2339 17.345L26.5749 21.0398C26.7497 21.1418 26.8891 21.2949 26.9742 21.4785C27.0593 21.6621 27.0861 21.8675 27.051 22.0668C27.0158 22.2661 26.9204 22.4499 26.7776 22.5933C26.6348 22.7368 26.4515 22.833 26.2523 22.869L19.0301 24.1722L15.3353 30.5132C15.2333 30.688 15.0802 30.8274 14.8966 30.9125C14.7129 30.9976 14.5076 31.0244 14.3083 30.9893C14.109 30.9541 13.9252 30.8587 13.7818 30.7159C13.6383 30.5732 13.5421 30.3898 13.5061 30.1907L12.2029 22.9684Z" fill="white"/>
<path d="M12.2029 22.9684L5.86189 19.2737C5.68706 19.1717 5.5477 19.0185 5.46258 18.8349C5.37746 18.6513 5.35066 18.446 5.38581 18.2466C5.42096 18.0473 5.51635 17.8635 5.65915 17.7201C5.80194 17.5767 5.98527 17.4804 6.18444 17.4444L13.4067 16.1412L17.1014 9.80021C17.2034 9.62539 17.3566 9.48603 17.5402 9.40091C17.7238 9.31578 17.9291 9.28899 18.1285 9.32414C18.3278 9.35928 18.5115 9.45468 18.655 9.59748C18.7984 9.74027 18.8947 9.9236 18.9307 10.1228L20.2339 17.345L26.5749 21.0398C26.7497 21.1418 26.8891 21.2949 26.9742 21.4785C27.0593 21.6621 27.0861 21.8675 27.051 22.0668C27.0158 22.2661 26.9204 22.4499 26.7776 22.5933C26.6348 22.7368 26.4515 22.833 26.2523 22.869L19.0301 24.1722L15.3353 30.5132C15.2333 30.688 15.0802 30.8274 14.8966 30.9125C14.7129 30.9976 14.5076 31.0244 14.3083 30.9893C14.109 30.9541 13.9252 30.8587 13.7818 30.7159C13.6383 30.5732 13.5421 30.3898 13.5061 30.1907L12.2029 22.9684Z" fill="white" stroke="white" stroke-width="2" stroke-linecap="round" stroke-linejoin="round"/>
<path d="M26.8752 5.78906L25.8333 11.6979" stroke="white" stroke-width="2" stroke-linecap="round" stroke-linejoin="round"/>
<path d="M31.5685 13.7246L30.8739 17.6638" stroke="white" stroke-width="2" stroke-linecap="round" stroke-linejoin="round"/>
<path d="M23.3998 8.22266L29.3087 9.26455" stroke="white" stroke-width="2" stroke-linecap="round" stroke-linejoin="round"/>
<path d="M29.2516 15.3477L33.1908 16.0422" stroke="white" stroke-width="2" stroke-linecap="round" stroke-linejoin="round"/>
</g>
<defs>
<clipPath id="clip0_9451_66009">
<rect width="32" height="32" fill="white" transform="translate(5.55674) rotate(10)"/>
</clipPath>
</defs>
</svg>
