<svg width="60" height="60" viewBox="0 0 60 60" fill="none" xmlns="http://www.w3.org/2000/svg">
<g clip-path="url(#clip0_9443_69316)">
<path opacity="0.2" d="M19.6875 37.5C26.4185 37.5 31.875 32.0435 31.875 25.3125C31.875 18.5815 26.4185 13.125 19.6875 13.125C12.9565 13.125 7.5 18.5815 7.5 25.3125C7.5 32.0435 12.9565 37.5 19.6875 37.5Z" fill="black"/>
<path d="M2.39746 46.8741C4.27033 43.9944 6.83277 41.6282 9.85214 39.9902C12.8715 38.3521 16.2522 37.4941 19.6873 37.4941C23.1224 37.4941 26.5031 38.3521 29.5225 39.9902C32.5418 41.6282 35.1043 43.9944 36.9772 46.8741" stroke="#58CC02" stroke-width="2" stroke-linecap="round" stroke-linejoin="round"/>
<path d="M40.3125 37.5C43.7474 37.498 47.1284 38.3546 50.148 39.9919C53.1675 41.6292 55.73 43.9953 57.6023 46.875" stroke="#58CC02" stroke-width="2" stroke-linecap="round" stroke-linejoin="round"/>
<path d="M19.6875 37.5C26.4185 37.5 31.875 32.0435 31.875 25.3125C31.875 18.5815 26.4185 13.125 19.6875 13.125C12.9565 13.125 7.5 18.5815 7.5 25.3125C7.5 32.0435 12.9565 37.5 19.6875 37.5Z" stroke="black" stroke-width="2" stroke-linecap="round" stroke-linejoin="round"/>
<path d="M35.7866 13.9922C37.4538 13.3273 39.2472 13.0388 41.0388 13.1473C42.8303 13.2559 44.5758 13.7588 46.1505 14.6202C47.7252 15.4815 49.0901 16.68 50.1479 18.1301C51.2056 19.5802 51.9301 21.246 52.2694 23.0084C52.6087 24.7709 52.5545 26.5866 52.1108 28.3258C51.667 30.0649 50.8446 31.6845 49.7023 33.069C48.56 34.4534 47.126 35.5685 45.5028 36.3344C43.8796 37.1004 42.1073 37.4984 40.3124 37.5" stroke="black" stroke-width="2" stroke-linecap="round" stroke-linejoin="round"/>
</g>
<defs>
<clipPath id="clip0_9443_69316">
<rect width="60" height="60" fill="white"/>
</clipPath>
</defs>
</svg>
